<svg width="256" height="256" viewBox="0 0 256 256" fill="none" xmlns="http://www.w3.org/2000/svg">
  <defs>
    <pattern id="arrow-default" patternUnits="userSpaceOnUse" width="36" height="45.6">
      <path d="M17.296 12.796 L9.796 20.296 C9.585 20.507 9.298 20.626 8.999 20.626 C8.700 20.626 8.414 20.507 8.202 20.296 C7.991 20.085 7.872 19.798 7.872 19.499 C7.872 19.200 7.991 18.914 8.202 18.702 L14.906 12 L8.204 5.296 C8.099 5.191 8.016 5.067 7.960 4.930 C7.903 4.794 7.874 4.647 7.874 4.499 C7.874.351 7.903 4.205 7.960 4.068 C8.016 3.931 8.099 3.807 8.204 3.702 C8.309 3.598 8.433 3.515 8.570 3.458 C8.706 3.401 8.853 3.372 9.001 3.372 C9.149 3.372 9.296 3.401 9.432 3.458 C9.569 3.515 9.693 3.598 9.798 3.702 L17.298 11.202 C17.403 11.307 17.486 11.431 17.542 11.568 C17.599 11.705 17.628 11.851 17.628 12.000 C17.628 12.148 17.598 12.294 17.541 12.431 C17.484 12.568 17.401 12.692 17.296 12.796 Z" fill="currentColor"/>
    </pattern>
  </defs>
  <rect width="256" height="256" fill="url(#arrow-default)"/>
</svg>
